<?xml version="1.0" standalone="no"?><!DOCTYPE svg PUBLIC "-//W3C//DTD SVG 1.1//EN" "http://www.w3.org/Graphics/SVG/1.1/DTD/svg11.dtd"><svg t="1726057325982" class="icon" viewBox="0 0 1024 1024" version="1.1" xmlns="http://www.w3.org/2000/svg" p-id="10547" xmlns:xlink="http://www.w3.org/1999/xlink" width="200" height="200"><path d="M1017.771 511.331c0 280.666-227.523 508.191-508.191 508.191s-508.19-227.525-508.19-508.191c0-280.665 227.523-508.19 508.191-508.19s508.19 227.523 508.19 508.19zM191.726 479.984h26.423v188.788h40.113v-188.788h23.558v-37.567h-23.558v-84.048h-40.113v84.048h-26.423v37.567zM274.182 598.096h46.958l-17.669 18.465c15.493 11.884 29.502 23.241 42.023 34.065l25.787-28.334c-10.932-8.701-21.703-16.766-32.314-24.195h92.165v16.555c0 4.882-1.221 9.022-3.662 12.417-2.443 3.395-8.332 5.093-17.669 5.093-8.703 0-21.437-0.532-38.205-1.591 4.88 16.766 8.063 29.393 9.551 37.885 31.622 0 51.998-1.036 61.126-3.104 9.126-2.068 16.023-6.475 20.692-13.212 4.669-6.74 7.004-15.734 7.004-26.981v-27.061h36.929v-31.2h-36.929v-12.417h20.375v-126.389h-81.5v-15.281h94.871v-31.2h-25.15c-7.217-9.973-14.326-19.314-21.33-28.017l-28.334 14.007 10.029 14.007h-30.085v-25.151h-37.567v25.151h-91.687v31.2h91.687v15.281h-78.636v128.3h38.205v-16.236h40.432v14.964h37.567v-14.964h43.298v9.551h-21.012v17.191h-156.951v31.2zM330.85 456.107h40.432v16.555h-40.432v-16.555zM330.85 498.13h40.432v16.555h-40.432v-16.555zM452.146 472.662h-43.298v-16.555h43.298v16.555zM408.85 498.13h43.298v16.555h-43.298v-16.555zM605.279 670.683v-15.281h139.442v15.281h43.298v-109.039c9.443 1.591 19.205 3.131 29.289 4.615l15.919-39.158c-42.449-2.547-79.008-7.323-109.675-14.326 23.241-12.838 42.819-27.697 58.738-44.571v-10.188h38.205v-75.771h-113.179c-3.715-11.247-7.059-20.692-10.029-28.334l-54.441 5.411 9.87 22.923h-123.526v75.771h43.616v-39.796h204.069v19.739h-119.068c3.82-4.14 7.427-8.382 10.825-12.735h-49.346c-22.711 23.558-52.107 43.086-88.186 58.579 8.063 8.703 16.023 18.465 23.877 29.289 15.068-7.642 29.076-15.703 42.023-24.195 9.973 9.129 20.587 17.139 31.836 24.036-30.563 7.537-68.026 14.062-112.382 19.579 5.731 11.461 11.037 23.666 15.919 36.611 10.188-1.696 20.057-3.447 29.609-5.253v106.81h43.296zM774.487 559.257h-190.062c35.339-7.534 65.687-15.81 91.052-24.832 27.061 9.445 60.063 17.725 99.010 24.832zM744.721 619.108h-139.442v-23.558h139.442v23.558zM628.359 470.433h96.305c-14.54 11.249-30.777 20.534-48.709 27.857-17.723-7.323-33.586-16.607-47.596-27.857z" fill="#000000" p-id="10548"></path></svg>