<?xml version="1.0" standalone="no"?><!DOCTYPE svg PUBLIC "-//W3C//DTD SVG 1.1//EN" "http://www.w3.org/Graphics/SVG/1.1/DTD/svg11.dtd"><svg t="1726057278431" class="icon" viewBox="0 0 1024 1024" version="1.1" xmlns="http://www.w3.org/2000/svg" p-id="7375" xmlns:xlink="http://www.w3.org/1999/xlink" width="200" height="200"><path d="M510.191416 119.000668h8.924515c232.037381 0 246.911572 286.179436 246.911571 286.179436A222.517898 222.517898 0 0 0 772.572147 475.981254a666.958728 666.958728 0 0 1 67.231343 226.087704c4.164773 44.027606 0 59.496764-8.924514 59.496764s-44.622573-52.357153-44.622574-52.357152c-6.544644-18.443997-11.899353-22.60877-15.469158-22.608771a6.544644 6.544644 0 0 0-4.759742 0 220.138028 220.138028 0 0 1-59.496764 132.677785l-25.583608 20.2289c72.586052 0 86.270308 46.407476 86.270308 46.407476s-8.329547 7.139612-23.203738 7.139611a1617.122053 1617.122053 0 0 1-218.353125-35.698058H497.697096a1103.664977 1103.664977 0 0 1-207.04874 42.242703c-17.254062 0-28.558447 0-30.34335-10.709418s13.089288-44.622573 83.29547-46.407476a192.769516 192.769516 0 0 1-86.865276-142.792234c0-10.11445-4.164773-13.684256-5.949676-13.684256s-7.139612 13.684256-7.139612 13.684256c0 10.709418-33.913156 46.407476-33.913156 46.407476-8.329547 8.924515-13.684256 12.49432-17.849029 12.49432S182.364245 744.311661 182.364245 744.311661a598.537449 598.537449 0 0 1 67.826311-252.861248 552.129973 552.129973 0 0 0 13.089288-99.359597C271.014424 133.279892 467.353746 119.000668 510.191416 119.000668m0-118.993528c-178.490293 0-356.980586 118.993529-365.9051 388.51387a439.08612 439.08612 0 0 1-6.544644 59.496765 669.933566 669.933566 0 0 0-73.775988 297.483821 140.412364 140.412364 0 0 0 37.482961 94.599855 130.297914 130.297914 0 0 0 41.647735 28.558447 125.538173 125.538173 0 0 0 0 49.382314 138.032493 138.032493 0 0 0 147.551976 105.309273 1036.433634 1036.433634 0 0 0 222.517898-41.647735 1490.988913 1490.988913 0 0 0 229.65751 35.103091 143.98217 143.98217 0 0 0 110.069014-42.83767 124.943205 124.943205 0 0 0 31.533285-94.599855v-8.924515a134.462687 134.462687 0 0 0 41.052768-29.748382 182.060099 182.060099 0 0 0 30.34335-145.767073 807.966059 807.966059 0 0 0-69.611215-254.646151 148.741911 148.741911 0 0 1 0-32.128252 45.217541 45.217541 0 0 0 0-8.924515A542.015523 542.015523 0 0 0 836.828652 212.410588 337.941621 337.941621 0 0 0 520.900834 0.00714z m371.854777 431.351541z" fill="#000000" p-id="7376"></path></svg>